<?xml version="1.0" encoding="utf-8"?>
<!-- Generator: Adobe Illustrator 23.1.0, SVG Export Plug-In . SVG Version: 6.00 Build 0)  -->
<svg version="1.1" id="Layer_1" xmlns="http://www.w3.org/2000/svg" xmlns:xlink="http://www.w3.org/1999/xlink" x="0px" y="0px"
	 viewBox="0 0 48 48" style="enable-background:new 0 0 48 48;" xml:space="preserve">
<style type="text/css">
	.st0{fill:#5081FB;fill-opacity:0.16;}
	.st1{fill:#FFFFFF;}
</style>
<path class="st0" d="M16,0h16c8.8,0,16,7.2,16,16v16c0,8.8-7.2,16-16,16H16C7.2,48,0,40.8,0,32V16C0,7.2,7.2,0,16,0z"/>
<path class="st1" d="M17,23c1.1,0,2-0.9,2-2s-0.9-2-2-2c-1.1,0-2,0.9-2,2S15.9,23,17,23z M31,23c1.1,0,2-0.9,2-2s-0.9-2-2-2
	s-2,0.9-2,2S29.9,23,31,23z M32,24h-2c-0.5,0-1,0.2-1.4,0.6c1.3,0.7,2.2,1.9,2.3,3.4H33c0.6,0,1-0.4,1-1v-1C34,24.9,33.1,24,32,24z
	 M24,24c1.9,0,3.5-1.6,3.5-3.5c0-1.9-1.6-3.5-3.5-3.5c-1.9,0-3.5,1.6-3.5,3.5C20.5,22.4,22.1,24,24,24z M26.4,25h-0.3
	c-0.6,0.3-1.4,0.5-2.1,0.5c-0.8,0-1.5-0.2-2.1-0.5h-0.3c-2,0-3.6,1.6-3.6,3.6v0.9c0,0.8,0.7,1.5,1.5,1.5h9c0.8,0,1.5-0.7,1.5-1.5
	v-0.9C30,26.6,28.4,25,26.4,25z M19.4,24.6C19,24.2,18.5,24,18,24h-2c-1.1,0-2,0.9-2,2v1c0,0.6,0.4,1,1,1h2.1
	C17.3,26.5,18.1,25.3,19.4,24.6z"/>
</svg>
