<svg id="Layer_1" data-name="Layer 1" xmlns="http://www.w3.org/2000/svg" viewBox="0 0 48 48"><defs><style>.cls-1{fill:#5081fb;fill-opacity:0.16;}.cls-2{fill:#fff;}</style></defs><title>editordecodigo</title><rect class="cls-1" width="48" height="48" rx="16"/><path class="cls-2" d="M22.72,32l-1.91-.55a.39.39,0,0,1-.26-.47l4.27-14.69a.36.36,0,0,1,.46-.25l1.91.55a.38.38,0,0,1,.26.46l-4.27,14.7A.36.36,0,0,1,22.72,32Zm-3.57-3.5L20.51,27a.37.37,0,0,0,0-.54L17.66,24l2.83-2.49a.37.37,0,0,0,0-.54l-1.36-1.45a.37.37,0,0,0-.53,0l-4.5,4.21a.38.38,0,0,0,0,.55l4.5,4.22A.37.37,0,0,0,19.15,28.48Zm10.23,0,4.5-4.23a.36.36,0,0,0,0-.54l-4.5-4.23a.38.38,0,0,0-.53,0L27.49,21a.37.37,0,0,0,0,.54L30.34,24l-2.83,2.49a.37.37,0,0,0,0,.54l1.36,1.45A.38.38,0,0,0,29.38,28.5Z"/></svg>