<?xml version="1.0" encoding="utf-8"?>
<!-- Generator: Adobe Illustrator 23.1.0, SVG Export Plug-In . SVG Version: 6.00 Build 0)  -->
<svg version="1.1" id="Layer_1" xmlns="http://www.w3.org/2000/svg" xmlns:xlink="http://www.w3.org/1999/xlink" x="0px" y="0px"
	 viewBox="0 0 48 48" style="enable-background:new 0 0 48 48;" xml:space="preserve">
<style type="text/css">
	.st0{fill:#051D3B;}
</style>
<path class="st0" d="M50.2-1.3H-2.2C-4.3-1.3-6,0.9-6,3.6v41.1c0,2.7,1.7,4.9,3.8,4.9h52.5c2.1,0,3.8-2.2,3.8-5v-41
	C54,0.9,52.3-1.3,50.2-1.3z M14.3,26.4c0,2.4-0.5,4.2-1.6,5.3c-1,1.1-2.8,1.7-5.1,1.7H1.6v-2.1h1.6V20.3h2.2v11h2
	c0.8,0,1.5-0.1,2.1-0.2c0.6-0.1,1.1-0.4,1.5-0.8c0.4-0.4,0.7-0.9,0.9-1.5c0.2-0.6,0.3-1.4,0.3-2.4v-4.5c0-1-0.1-1.8-0.3-2.4
	c-0.2-0.6-0.5-1.2-0.9-1.5s-0.9-0.7-1.5-0.8c-0.6-0.1-1.3-0.2-2.1-0.2h-2H3.2H1.6v-2.1h6.1c2.3,0,4,0.6,5.1,1.7
	c1,1.1,1.6,2.9,1.6,5.3V26.4z M29.9,33.4H18.4V14.7h11.2v2.1h-9.1v14.6h0h9.2V33.4z M29.6,23V25H23V23H29.6z M31.6,14.7H34l0.8,3
	h-2.3L31.6,14.7z M41.2,33.4h-4.3l-3.8-13.3h2.3l3,11.2h1l4.6-16.7h2.4L41.2,33.4z"/>
<rect x="23" y="23" class="st0" width="6.5" height="2.1"/>
</svg>
