<?xml version="1.0" encoding="utf-8"?>
<!-- Generator: Adobe Illustrator 23.1.0, SVG Export Plug-In . SVG Version: 6.00 Build 0)  -->
<svg version="1.1" id="Layer_1" xmlns="http://www.w3.org/2000/svg" xmlns:xlink="http://www.w3.org/1999/xlink" x="0px" y="0px"
	 viewBox="0 0 20 16" style="enable-background:new 0 0 20 16;" xml:space="preserve">
<style type="text/css">
	.st0{fill:#FFFFFF;}
</style>
<path class="st0" d="M8.7,16l-1.9-0.6c-0.2-0.1-0.3-0.3-0.3-0.5l4.3-14.7C10.9,0.1,11.1,0,11.3,0l1.9,0.6c0.2,0.1,0.3,0.3,0.3,0.5
	L9.2,15.7C9.1,15.9,8.9,16,8.7,16z M5.2,12.5L6.5,11c0.1-0.2,0.1-0.4,0-0.5L3.7,8l2.8-2.5c0.2-0.1,0.2-0.4,0-0.5L5.2,3.5
	C5,3.4,4.8,3.4,4.6,3.5L0.1,7.7C0,7.9,0,8.1,0.1,8.3l4.5,4.2C4.8,12.6,5,12.6,5.2,12.5z M15.4,12.5l4.5-4.2c0.2-0.1,0.2-0.4,0-0.5
	l-4.5-4.2c-0.1-0.1-0.4-0.1-0.5,0L13.5,5c-0.1,0.2-0.1,0.4,0,0.5L16.3,8l-2.8,2.5c-0.2,0.1-0.2,0.4,0,0.5l1.4,1.4
	C15,12.6,15.2,12.6,15.4,12.5z"/>
</svg>
